<svg xmlns="http://www.w3.org/2000/svg" xmlns:xlink="http://www.w3.org/1999/xlink" version="1.1" x="0px" y="0px" viewBox="0 0 100 125" style="enable-background:new 0 0 100 100;" xml:space="preserve"><path d="M94.9,17.6c-0.8-5.7-4-8.6-6.6-10.5c-2.9-2.1-6.6-2.6-9.9-1.3c-3.5,1.3-6,3.9-8.6,6.5c-3,3.2-6.2,6.2-9.3,9.3  c-3.1-2-4.8-1.8-7.3,0.6c-1.5,1.5-3,2.9-4.4,4.4c-1.5,1.6-1.7,4.2-0.2,5.8c0.7,0.8,1.7,1.3,2.7,2c-1.1,0.9-1.6,1.3-2,1.7  C38,47.4,26.6,58.8,15.2,70.1c-2.6,2.6-4.7,5.4-5.7,9.1c-0.5,2-1.7,3.9-2.8,5.6c-0.2,0.3-0.4,0.5-0.6,0.8c-1.7,2.3-1.6,5.4,0.4,7.4  c0.1,0.1,0.2,0.2,0.2,0.2c2,2,5,2.1,7.3,0.5c0,0,0,0,0.1,0c1.7-1.2,3.3-2.8,5.2-3.1c4.2-0.9,7.5-3,10.4-6C41.3,73.4,52.6,62,64,50.7  c0.5-0.5,1-0.9,1.8-1.7c0.5,0.7,0.8,1.3,1.3,1.8c2.2,2.3,4.6,2.2,6.9,0c1.2-1.2,2.4-2.4,3.6-3.6c2.9-2.9,3.7-4.3,1.1-7.8  c2.4-2.4,4.8-4.7,7.2-7.1c3.3-3.4,7.2-6.3,8.7-11.1C95,20,95.1,18.8,94.9,17.6z M61.6,47.2C49.9,58.9,38.2,70.6,26.5,82.2  c-2.2,2.2-4.7,3.6-7.7,4.4c-2.3,0.6-4.3,2.2-6.4,3.3c-0.2,0.1-0.4,0.3-0.6,0.4c-0.6,0.5-1.5,0.4-2-0.1c0,0,0,0,0,0  c-0.5-0.6-0.6-1.4-0.1-2c0.7-0.9,1.4-1.8,2-2.7c0.8-1.3,1.5-2.8,1.8-4.3c0.6-2.9,1.9-5.3,3.9-7.3c12.1-12.1,24.2-24.2,36.1-36.1  c2.9,2.8,5.7,5.7,8.7,8.7C62.2,46.5,61.9,46.9,61.6,47.2z"/></svg>